<?xml version="1.0" encoding="utf-8"?>
<!-- Generator: Adobe Illustrator 17.0.0, SVG Export Plug-In . SVG Version: 6.00 Build 0)  -->
<!DOCTYPE svg PUBLIC "-//W3C//DTD SVG 1.1//EN" "http://www.w3.org/Graphics/SVG/1.1/DTD/svg11.dtd">
<svg version="1.1" xmlns="http://www.w3.org/2000/svg" xmlns:xlink="http://www.w3.org/1999/xlink" x="0px" y="0px" width="300px"
	 height="300px" viewBox="0 0 300 300" enable-background="new 0 0 300 300" xml:space="preserve">
<g id="Layer_1">
	<path fill="#393939" d="M258.67,178.48V73h-32.92v10.66h23.33c0.79,0,1.42,0.64,1.42,1.42c0,0.79-0.63,1.42-1.42,1.42h-23.33v20.62
		h23.33c0.79,0,1.42,0.63,1.42,1.42c0,0.78-0.63,1.41-1.42,1.41h-23.33v19.16h23.33c0.79,0,1.42,0.63,1.42,1.42
		c0,0.78-0.63,1.41-1.42,1.41h-23.33v20.17h23.33c0.79,0,1.42,0.63,1.42,1.42c0,0.78-0.63,1.41-1.42,1.41h-23.33v26.54
		L258.67,178.48z M261.5,71.59v108.19c0,0.73-0.56,1.34-1.29,1.41l-35.75,3.25c-0.04,0-0.08,0-0.13,0c-0.35,0-0.69-0.13-0.95-0.37
		c-0.3-0.26-0.46-0.64-0.46-1.04V71.59c0-0.79,0.63-1.42,1.41-1.42h35.75C260.87,70.17,261.5,70.8,261.5,71.59z"/>
	<path fill="#393939" d="M179.75,83.88h35.5V72.96l-35.5-0.99V83.88z M179.75,107.12h35.5V86.71h-35.5V107.12z M179.75,129.89
		l35.5-0.75v-19.19h-35.5V129.89z M179.75,154.27l35.5-2.08v-20.22l-35.5,0.76V154.27z M179.75,185.01l35.5-2.79v-27.19l-35.5,2.08
		V185.01z M216.78,184.94l-38.34,3.02c-0.03,0-0.07,0-0.11,0c-0.35,0-0.7-0.13-0.96-0.37c-0.29-0.27-0.45-0.65-0.45-1.04V70.54
		c0-0.79,0.63-1.42,1.41-1.42h1l37.38,1.05c0.76,0.02,1.37,0.65,1.37,1.42v111.94C218.08,184.27,217.51,184.88,216.78,184.94z"/>
	<path fill="#393939" d="M168.92,107.12V86.7l-39.84-0.4v20.82H168.92z M168.92,83.87V69.28h-39.84v14.18L168.92,83.87z
		 M168.92,129.99v-20.04h-39.84v21.95L168.92,129.99z M168.92,155.68v-22.85l-39.84,1.91v22.96L168.92,155.68z M168.92,186.93
		v-28.41l-39.84,2.02v31.06L168.92,186.93z M171.75,67.86v120.33c0,0.72-0.54,1.33-1.25,1.41l-42.67,5
		c-0.05,0.01-0.11,0.01-0.16,0.01c-0.35,0-0.69-0.13-0.95-0.36c-0.3-0.27-0.47-0.65-0.47-1.06V67.86c0-0.78,0.63-1.42,1.42-1.42
		h42.66C171.12,66.44,171.75,67.08,171.75,67.86z"/>
	<path fill="#393939" d="M69.33,64.83H118c0.78,0,1.42,0.64,1.42,1.42v128.88c0,0.72-0.54,1.33-1.26,1.41l-46.33,5.39
		c-0.06,0-0.11,0.01-0.16,0.01c-0.35,0-0.68-0.13-0.94-0.36c-0.3-0.26-0.47-0.64-0.48-1.04l-1.6-92l-0.73-42.27
		c-0.01-0.38,0.14-0.74,0.4-1.01C68.59,64.99,68.95,64.83,69.33,64.83z M116.58,82.69V67.67H70.77l0.27,15.02H116.58z
		 M116.58,107.12v-21.6H71.09l0.37,21.6H116.58z M116.58,134.11v-24.16H71.51l0.42,24.16H116.58z M116.58,157.85v-20.91h-44.6
		l0.41,23.42L116.58,157.85z M116.58,193.87v-33.18l-44.14,2.51l0.62,35.73L116.58,193.87z"/>
	<path fill="#393939" d="M227.08,228.57v-27.53l-2.33,0.28v27.62L227.08,228.57z M232.25,227.75v-27.34l-2.33,0.28v27.43
		L232.25,227.75z M55.92,253.15V45.37l-18.17,9.51V232L55.92,253.15z M211.58,231.03v-28.09l-2.33,0.28v28.18L211.58,231.03z
		 M216.75,230.21V202.3l-2.33,0.29v27.99L216.75,230.21z M221.92,201.67l-2.34,0.29v27.8l2.34-0.37V201.67z M122.92,199.25v-136
		l-57.48-2.6l2.62,144.63L122.92,199.25z M124.21,244.91v-31.27l-5.96,0.72v31.5L124.21,244.91z M89.55,250.42v-32.54L68,220.52
		v33.32L89.55,250.42z M98.19,249.05v-32.23l-5.8,0.71v32.44L98.19,249.05z M106.62,247.71v-31.92l-5.6,0.68v32.13L106.62,247.71z
		 M115.42,246.31v-31.6l-5.96,0.73v31.82L115.42,246.31z M262.25,222.98v-26.25l-27.17,3.33v27.24L262.25,222.98z M262.25,183.92
		V69.55l-40.14-1.82v120.61L262.25,183.92z M133,243.52v-30.96l-5.96,0.73v31.17L133,243.52z M141.79,242.12v-30.64l-5.96,0.73
		v30.86L141.79,242.12z M173.89,193.64V65.55l-48.14-2.18v135.57L173.89,193.64z M176.72,193.33l42.56-4.68V67.6l-42.56-1.92V193.33
		z M66.82,208.27c-0.05,0-0.1,0.01-0.15,0.01c-0.35,0-0.68-0.13-0.94-0.36c-0.3-0.26-0.47-0.64-0.48-1.03l-2.67-147.7
		c0-0.39,0.15-0.77,0.43-1.04c0.28-0.28,0.66-0.43,1.05-0.4l198.19,8.96v-9.19L58.75,44.54v210.77l6.42-1.01v-40.02
		c0-0.72,0.53-1.32,1.24-1.41l195.84-23.98v-2.11L66.82,208.27z M190.92,234.32v-28.85l-46.29,5.67v30.53L190.92,234.32z
		 M196.08,233.5v-28.67l-2.33,0.29v28.75L196.08,233.5z M201.25,232.67V204.2l-2.33,0.29v28.56L201.25,232.67z M262.25,193.87v-2.12
		L68,215.53v2.13L262.25,193.87z M206.42,231.85v-28.28l-2.34,0.28v28.37L206.42,231.85z M263.89,225.59L57.55,258.37
		c-0.07,0.02-0.14,0.02-0.22,0.02c-0.15,0-0.29-0.03-0.43-0.08c-0.03-0.01-0.06-0.01-0.09-0.02c-0.13-0.06-0.26-0.13-0.37-0.22
		c-0.01-0.01-0.02-0.01-0.03-0.02c-0.03-0.02-0.05-0.05-0.07-0.08c-0.03-0.02-0.06-0.04-0.08-0.07l-21-24.45
		c-0.22-0.26-0.34-0.58-0.34-0.92V54.03c0-0.53,0.29-1.01,0.75-1.26l21-11c0.02-0.01,0.04-0.01,0.06-0.02
		c0.08-0.04,0.16-0.07,0.24-0.09c0.03,0,0.06-0.01,0.09-0.02c0.08-0.01,0.16-0.02,0.25-0.02c0.03,0,0.06-0.01,0.09-0.01
		c0.01,0,0.01,0,0.02,0l206.34,13.17c0.74,0.05,1.32,0.67,1.32,1.41v12v117v39C265.08,224.89,264.58,225.48,263.89,225.59z"/>
</g>
<g id="Layer_2">
	<path fill="#848586" d="M258.67,73v105.48l-32.92,3v-26.54h23.33c0.79,0,1.42-0.63,1.42-1.41c0-0.79-0.63-1.42-1.42-1.42h-23.33
		v-20.17h23.33c0.79,0,1.42-0.63,1.42-1.41c0-0.79-0.63-1.42-1.42-1.42h-23.33v-19.16h23.33c0.79,0,1.42-0.63,1.42-1.41
		c0-0.79-0.63-1.42-1.42-1.42h-23.33V86.5h23.33c0.79,0,1.42-0.63,1.42-1.42c0-0.78-0.63-1.42-1.42-1.42h-23.33V73H258.67z"/>
	<polygon fill="#848586" points="215.25,72.96 215.25,83.88 179.75,83.88 179.75,71.97 	"/>
	<rect x="179.75" y="86.71" fill="#848586" width="35.5" height="20.41"/>
	<polygon fill="#848586" points="215.25,109.95 215.25,129.14 179.75,129.89 179.75,109.95 	"/>
	<polygon fill="#848586" points="215.25,131.97 215.25,152.19 179.75,154.27 179.75,132.73 	"/>
	<polygon fill="#848586" points="215.25,155.03 215.25,182.22 179.75,185.01 179.75,157.11 	"/>
	<polygon fill="#848586" points="168.92,158.52 168.92,186.93 129.08,191.6 129.08,160.54 	"/>
	<polygon fill="#848586" points="168.92,132.83 168.92,155.68 129.08,157.7 129.08,134.74 	"/>
	<polygon fill="#848586" points="168.92,109.95 168.92,129.99 129.08,131.9 129.08,109.95 	"/>
	<polygon fill="#848586" points="168.92,86.7 168.92,107.12 129.08,107.12 129.08,86.3 	"/>
	<polygon fill="#848586" points="168.92,69.28 168.92,83.87 129.08,83.46 129.08,69.28 	"/>
	<polygon fill="#848586" points="116.58,67.67 116.58,82.69 71.04,82.69 70.77,67.67 	"/>
	<polygon fill="#848586" points="116.58,85.52 116.58,107.12 71.46,107.12 71.09,85.52 	"/>
	<polygon fill="#848586" points="116.58,109.95 116.58,134.11 71.93,134.11 71.51,109.95 	"/>
	<polygon fill="#848586" points="116.58,136.94 116.58,157.85 72.39,160.36 71.98,136.94 	"/>
	<polygon fill="#848586" points="116.58,160.69 116.58,193.87 73.06,198.93 72.44,163.2 	"/>
</g>
<g id="Layer_3">
	<polygon fill="#F1F1F1" points="68,217.66 68,215.53 262.25,191.75 262.25,193.87 	"/>
	<polygon fill="#F1F1F1" points="262.25,196.73 262.25,222.98 235.08,227.3 235.08,200.06 	"/>
	<polygon fill="#F1F1F1" points="190.92,205.47 190.92,234.32 144.63,241.67 144.63,211.14 	"/>
	<polygon fill="#F1F1F1" points="89.55,217.88 89.55,250.42 68,253.84 68,220.52 	"/>
	<path fill="#F1F1F1" d="M262.25,188.89L66.41,212.87c-0.71,0.09-1.24,0.69-1.24,1.41v40.02l-6.42,1.01V44.54l203.5,12.98v9.19
		L64.06,57.75c-0.39-0.03-0.77,0.12-1.05,0.4c-0.28,0.27-0.43,0.65-0.43,1.04l2.67,147.7c0.01,0.39,0.18,0.77,0.48,1.03
		c0.26,0.23,0.59,0.36,0.94,0.36c0.05,0,0.1-0.01,0.15-0.01l195.43-21.49V188.89z"/>
	<polygon fill="#F1F1F1" points="55.92,45.37 55.92,253.15 37.75,232 37.75,54.88 	"/>
</g>
<g id="Layer_4">
	<polygon fill="#ADADAD" points="232.25,200.41 232.25,227.75 229.92,228.12 229.92,200.69 	"/>
	<polygon fill="#ADADAD" points="227.08,201.04 227.08,228.57 224.75,228.94 224.75,201.32 	"/>
	<polygon fill="#ADADAD" points="221.92,201.67 221.92,229.39 219.58,229.76 219.58,201.96 	"/>
	<polygon fill="#ADADAD" points="216.75,202.3 216.75,230.21 214.42,230.58 214.42,202.59 	"/>
	<polygon fill="#ADADAD" points="211.58,202.94 211.58,231.03 209.25,231.4 209.25,203.22 	"/>
	<polygon fill="#ADADAD" points="206.42,203.57 206.42,231.85 204.08,232.22 204.08,203.85 	"/>
	<polygon fill="#ADADAD" points="201.25,204.2 201.25,232.67 198.92,233.05 198.92,204.49 	"/>
	<polygon fill="#ADADAD" points="196.08,204.83 196.08,233.5 193.75,233.87 193.75,205.12 	"/>
	<polygon fill="#ADADAD" points="141.79,211.48 141.79,242.12 135.83,243.07 135.83,212.21 	"/>
	<polygon fill="#ADADAD" points="133,212.56 133,243.52 127.04,244.46 127.04,213.29 	"/>
	<polygon fill="#ADADAD" points="124.21,213.64 124.21,244.91 118.25,245.86 118.25,214.36 	"/>
	<polygon fill="#ADADAD" points="115.42,214.71 115.42,246.31 109.46,247.26 109.46,215.44 	"/>
	<polygon fill="#ADADAD" points="106.62,215.79 106.62,247.71 101.02,248.6 101.02,216.47 	"/>
	<polygon fill="#ADADAD" points="98.19,216.82 98.19,249.05 92.39,249.97 92.39,217.53 	"/>
	<path fill="#ADADAD" d="M261.5,179.78V71.59c0-0.79-0.63-1.42-1.42-1.42h-35.75c-0.78,0-1.41,0.63-1.41,1.42v111.44
		c0,0.4,0.16,0.78,0.46,1.04c0.26,0.24,0.6,0.37,0.95,0.37c0.05,0,0.09,0,0.13,0l35.75-3.25
		C260.94,181.12,261.5,180.51,261.5,179.78z M262.25,69.55v114.37l-40.14,4.42V67.73L262.25,69.55z"/>
	<path fill="#ADADAD" d="M122.92,199.25l-54.86,6.03L65.44,60.65l57.48,2.6V199.25z M118,64.83H69.33c-0.38,0-0.74,0.16-1.01,0.43
		c-0.26,0.27-0.41,0.63-0.4,1.01l0.73,42.27l1.6,92c0.01,0.4,0.18,0.78,0.48,1.04c0.26,0.23,0.59,0.36,0.94,0.36
		c0.05,0,0.1-0.01,0.16-0.01l46.33-5.39c0.72-0.08,1.26-0.69,1.26-1.41V66.25C119.42,65.47,118.78,64.83,118,64.83z"/>
	<path fill="#ADADAD" d="M171.75,188.19V67.86c0-0.78-0.63-1.42-1.42-1.42h-42.66c-0.79,0-1.42,0.64-1.42,1.42v125.33
		c0,0.41,0.17,0.79,0.47,1.06c0.26,0.23,0.6,0.36,0.95,0.36c0.05,0,0.11,0,0.16-0.01l42.67-5
		C171.21,189.52,171.75,188.91,171.75,188.19z M173.89,65.55v128.09l-48.14,5.3V63.37L173.89,65.55z"/>
	<path fill="#ADADAD" d="M176.72,193.33V65.68l42.56,1.92v121.05L176.72,193.33z M178.44,187.96l38.34-3.02
		c0.73-0.06,1.3-0.67,1.3-1.41V71.59c0-0.77-0.61-1.4-1.37-1.42l-37.38-1.05h-1c-0.78,0-1.41,0.63-1.41,1.42v116.01
		c0,0.39,0.16,0.77,0.45,1.04c0.26,0.24,0.61,0.37,0.96,0.37C178.37,187.96,178.41,187.96,178.44,187.96z"/>
</g>
</svg>
