<?xml version="1.0" encoding="utf-8"?>
<!-- Generator: Adobe Illustrator 17.0.0, SVG Export Plug-In . SVG Version: 6.00 Build 0)  -->
<!DOCTYPE svg PUBLIC "-//W3C//DTD SVG 1.1//EN" "http://www.w3.org/Graphics/SVG/1.1/DTD/svg11.dtd">
<svg version="1.1" xmlns="http://www.w3.org/2000/svg" xmlns:xlink="http://www.w3.org/1999/xlink" x="0px" y="0px" width="300px"
	 height="300px" viewBox="0 0 300 300" enable-background="new 0 0 300 300" xml:space="preserve">
<g id="Layer_1">
	<path fill="#393939" d="M101.446,178.477c-0.604,0-1.187-0.18-1.691-0.525c-0.799-0.554-1.273-1.468-1.273-2.439v-2.23
		c0-1.935,1.223-3.691,3.043-4.36l183.887-67.51c0.813-0.302,1.763-0.137,2.439,0.41c0.676,0.561,1.022,1.446,0.885,2.317
		l-0.374,2.461c-0.187,1.216-1.022,2.238-2.166,2.669L102.49,178.29C102.151,178.42,101.806,178.477,101.446,178.477z
		 M100.518,173.283v2.23c0,0.302,0.151,0.59,0.403,0.763c0.245,0.173,0.568,0.209,0.849,0.108l183.707-69.028
		c0.46-0.165,0.791-0.576,0.871-1.065l0.374-2.461c0.022-0.158-0.036-0.324-0.158-0.424c-0.086-0.065-0.187-0.101-0.295-0.101
		c-0.05,0-0.108,0.007-0.158,0.022l-183.88,67.51C101.209,171.211,100.518,172.196,100.518,173.283z"/>
	<path fill="#393939" d="M290.744,75.741c-6.209-3.432-22.47-11.749-39.313-14.994c-6.288-1.209-13.375-1.82-21.074-1.82
		c-13.08,0-23.549,1.799-23.707,1.828l-84.857,19.16c-0.014,0-0.029,0.007-0.043,0.007L36.635,99.139l-12.159,0.094l-2.058,3.173
		c-3.964,0.856-13.174,2.82-14.282,2.964c-0.439,0.05-0.827,0.295-1.094,0.676c-0.914,1.338-0.173,4.914,0.216,6.461l8.339,75.992
		l3.662,2.144v1.238c0,2.569,2.087,4.655,4.655,4.655c1.252,0,2.382-0.496,3.216-1.295l66.423,38.802v2.374
		c0,2.576,2.079,4.655,4.648,4.655c2.569,0,4.655-2.079,4.655-4.655v-2.245l98.369-46.429c0.827,1.295,2.259,2.159,3.907,2.159
		c2.569,0,4.655-2.087,4.655-4.655v-1.54l66.265-31.276c0.849,0.899,2.036,1.461,3.367,1.461c2.569,0,4.655-2.086,4.655-4.655v-0.59
		l2.216-1.043l0.525-0.252l6.555-66.617C293.572,78.691,292.543,76.734,290.744,75.741z M167.258,81.188l0.245,0.058l76.021-18.182
		l-23.498-1.533l-3.921,1.072c-0.827-0.115-3.734-0.461-5.619,0.058c-1.899,0.518-5.439,1.05-5.439,1.05l-1.504,0.18l-55.271,12.246
		c-0.13-0.007-0.259-0.014-0.389-0.022l59.171-13.361c0.101-0.014,10.397-1.784,23.304-1.784c7.569,0,14.526,0.597,20.685,1.784
		c15.275,2.936,30.096,10.145,37.111,13.901l-7.698-1.862l-1.642-2.207l-12.468-4.802l-2.01-0.028l-0.264-0.143
		c-0.201-0.101-4.9-2.612-10.231-3.533c-5.159-0.885-8.073-1.432-8.101-1.439l-0.216-0.036l-1.993,0.489L163.884,82.49l3.669,1.065
		c0.266,0.079,25.743,7.547,37.449,17.239l-1.122,0.338c-13.706-11.202-36.442-16.958-37.413-17.203l-0.252-0.058L58.255,111.766
		c-1.892-0.878-3.82-1.72-5.763-2.518l113.485-27.887l-4.619-0.871c-0.648-0.122-11.425-2.115-23.448-2.115
		C149.882,76.799,167.085,81.138,167.258,81.188z M154.782,76.778l49.055-10.864l1.482-0.18c0.144-0.022,3.684-0.554,5.706-1.108
		c1.446-0.388,4.087-0.115,4.979,0.029l0.216,0.029l4.015-1.094l9.684,0.633l-62.401,14.922
		C166.301,78.85,161.135,77.612,154.782,76.778z M206.427,87.829l20.117-5.605c0.396-0.115,0.813-0.094,1.194,0.043l17.304,6.31
		l-20.009,6.101L206.427,87.829z M223.889,95.031l-16.584,5.058c-3.569-3.209-8.562-6.166-13.793-8.735l11.123-3.036
		c0.396-0.108,0.806-0.086,1.194,0.058L223.889,95.031z M228.364,81.728l17.21-4.569c0.381-0.101,0.791-0.086,1.166,0.05
		l16.282,5.885l-16.836,5.137L228.364,81.728z M246.985,76.533c-0.511-0.18-1.065-0.209-1.597-0.065l-18.318,4.857l0.029,0.108
		c-0.252,0-0.504,0.029-0.748,0.094l-21.189,5.907l0.029,0.101c-0.252,0-0.496,0.029-0.741,0.094l-11.922,3.252
		c-2.158-1.036-4.353-2.007-6.49-2.9l60.538-15.814V64.87c1.317,0.237,3.677,0.662,6.922,1.223c3.525,0.604,6.842,2,8.504,2.77
		l-1.324,1.655l2.403,1.72h2.115l7.655,3.065l0.806,1.13l0.115,0.086c0.036,0.036,1.043,0.835,2.619,1.425
		c1.533,0.576,3.123-0.475,3.885-1.101l1.806,0.439l-17.908,5.461L246.985,76.533z M182.871,86.699
		c-4.475-1.756-8.49-3.13-11.21-4.008l72.877-17.75v5.648L182.871,86.699z M263.612,70.115l1.089-1.365h1.026l-0.502,1.451h-1.491
		L263.612,70.115z M266.199,70.447l0.503-1.455l10.932,4.21L277,73.598v2.385c-0.938-0.366-1.613-0.81-1.854-0.982l-0.986-1.374
		L266.199,70.447z M278,75.888v-1.736l0.501-0.313l0.826,1.111L279.275,75C278.997,75.278,278.488,75.664,278,75.888z
		 M98.353,126.501l-0.719,0.252l-0.439-0.295c-1.259-0.863-5.778-3.972-9.166-6.202l8.224-2.158
		c0.432-0.115,0.885-0.065,1.281,0.137l18.8,9.598l-13.361,4.08l-1.928-4.267C100.576,126.617,99.417,126.12,98.353,126.501z
		 M101,132.509l-5.058,1.547l-0.223-4.461l3.317-1.173c0.058-0.022,0.122,0.007,0.144,0.065L101,132.509z M83.92,122.451l9.72,6.317
		l0.223,4.504c-2.302-1.727-6.691-4.907-12.411-8.591L83.92,122.451z M79.667,123.544c-0.058-0.036-0.122-0.072-0.187-0.115
		c1.684-1.828,3.41-3.374,4.065-3.605c0.043,0.022,0.094,0.05,0.137,0.079L79.667,123.544z M84.661,120.501
		c0.59,0.367,1.324,0.849,2.173,1.41L84.661,120.501z M98.389,117.529l29.06-7.77c0.432-0.115,0.885-0.065,1.281,0.129l17.591,8.799
		l-28.578,8.72L98.389,117.529z M129.578,109.169l26.578-7.475c0.424-0.122,0.871-0.079,1.273,0.108l17.225,8.245l-26.916,8.209
		L129.578,109.169z M158.315,101.096l23.175-6.31c0.41-0.115,0.842-0.079,1.23,0.101l16.671,7.612l-23.29,7.109L158.315,101.096z
		 M183.144,93.959c-0.604-0.281-1.288-0.331-1.921-0.158l-24.499,6.677l0.036,0.144c-0.295-0.014-0.59,0.007-0.878,0.094
		l-27.851,7.835l0.043,0.137c-0.295-0.014-0.597,0.007-0.885,0.086l-30.348,8.116l0.043,0.144c-0.302-0.022-0.597,0-0.892,0.079
		l-8.756,2.295c0,0-2.626-1.353-3.022-1.525c-0.46-0.194-1.835-0.77-6.49,4.454c-2.036-1.259-4.202-2.54-6.461-3.828l106.261-28.945
		c7.375,2.677,16.843,6.806,23.988,12.289l-0.648,0.201L183.144,93.959z M68.717,117.083c-2.439-1.338-4.979-2.669-7.598-3.95
		l105.096-27.161c0.856,0.223,3.849,1.036,7.914,2.396L68.717,117.083z M135.788,80.562l-0.029-0.108
		c7.828-0.151,15.426,0.633,20.203,1.273L49.219,107.953c-3.511-1.331-7.073-2.482-10.605-3.382l4.396-1.309l-1.525-1.525
		L135.788,80.562z M37.822,100.96l1.324,1.324l-3.598,1.07l0.826-2.174l0.498-0.004L37.822,100.96z M25.591,101.262l9.711-0.074
		l-0.924,2.432c-3.244-0.635-6.46-1.036-9.585-1.128L25.591,101.262z M17.511,187.262l-8.145-74.208
		c35.399-10.907,79.309,31.247,83.187,35.061l4.216,85.447L17.511,187.262z M284.895,146.007L98.82,233.82l-4.216-85.418
		L290.91,84.944L284.895,146.007z M291.341,80.533l-0.216,2.194L93.827,146.51c-2.31-2.266-13.411-12.864-28.11-22.11
		c-21.448-13.483-41.018-18.088-56.703-13.375c-0.317-1.576-0.461-3.101-0.331-3.677c2.022-0.345,10.548-2.173,13.548-2.813
		c0.389-0.014,0.777-0.022,1.166-0.022c30.111,0,70.56,31.377,70.97,31.701l0.417,0.324l194.442-59.307
		c0.187,0.101,0.367,0.201,0.532,0.295C290.845,78.123,291.464,79.303,291.341,80.533z"/>
</g>
<g id="Layer_2">
	<path fill="#727272" d="M282.081,77.281l-17.908,5.461l-17.189-6.209c-0.511-0.18-1.065-0.209-1.597-0.065l-18.318,4.857
		l0.029,0.108c-0.252,0-0.504,0.029-0.748,0.094l-21.189,5.907l0.029,0.101c-0.252,0-0.496,0.029-0.741,0.094l-11.922,3.252
		c-2.158-1.036-4.353-2.007-6.49-2.9l60.538-15.814V64.87c1.317,0.237,3.677,0.662,6.921,1.223c3.525,0.604,6.842,2,8.504,2.77
		l-1.324,1.655l2.403,1.72h2.115l7.655,3.065l0.806,1.13l0.115,0.086c0.036,0.036,1.043,0.835,2.619,1.425
		c1.533,0.576,3.123-0.475,3.885-1.101L282.081,77.281z"/>
	<path fill="#727272" d="M229.918,64.222l-62.401,14.922c-1.216-0.295-6.382-1.533-12.735-2.367l49.055-10.864l1.482-0.18
		c0.144-0.022,3.684-0.554,5.706-1.108c1.446-0.389,4.087-0.115,4.979,0.029l0.216,0.029l4.015-1.094L229.918,64.222z"/>
	<path fill="#727272" d="M263.022,83.095l-16.836,5.137l-17.822-6.504l17.21-4.569c0.381-0.101,0.791-0.086,1.166,0.05
		L263.022,83.095z"/>
	<path fill="#727272" d="M245.042,88.577l-20.009,6.101l-18.606-6.85l20.117-5.605c0.396-0.115,0.813-0.094,1.194,0.043
		L245.042,88.577z"/>
	<path fill="#727272" d="M223.889,95.031l-16.584,5.058c-3.569-3.209-8.562-6.166-13.793-8.735l11.123-3.036
		c0.396-0.108,0.806-0.086,1.194,0.058L223.889,95.031z"/>
	<path fill="#727272" d="M199.39,102.499l-23.29,7.109l-17.786-8.512l23.175-6.31c0.41-0.115,0.842-0.079,1.23,0.101L199.39,102.499
		z"/>
	<path fill="#727272" d="M177.525,89.563c7.375,2.677,16.843,6.806,23.988,12.289l-0.648,0.201l-17.721-8.094
		c-0.604-0.281-1.288-0.331-1.921-0.158l-24.499,6.677l0.036,0.144c-0.295-0.014-0.59,0.007-0.878,0.094l-27.851,7.835l0.043,0.137
		c-0.295-0.014-0.597,0.007-0.885,0.086l-30.348,8.116l0.043,0.144c-0.302-0.022-0.597,0-0.892,0.079l-8.756,2.295
		c0,0-2.626-1.353-3.022-1.525c-0.46-0.194-1.835-0.77-6.49,4.454c-2.036-1.259-4.202-2.54-6.461-3.828L177.525,89.563z"/>
	<path fill="#727272" d="M101.043,127.645c-0.468-1.029-1.626-1.525-2.691-1.144l-0.719,0.252l-0.439-0.295
		c-1.259-0.863-5.777-3.972-9.166-6.202l8.224-2.158c0.432-0.115,0.885-0.065,1.281,0.137l18.8,9.598l-13.361,4.079L101.043,127.645
		z"/>
	<path fill="#727272" d="M174.654,110.047l-26.916,8.209l-18.16-9.087l26.578-7.475c0.424-0.122,0.871-0.079,1.273,0.108
		L174.654,110.047z"/>
	<path fill="#727272" d="M146.321,118.688l-28.578,8.72l-19.354-9.879l29.06-7.77c0.432-0.115,0.885-0.065,1.281,0.13
		L146.321,118.688z"/>
	<path fill="#727272" d="M167.553,83.555c0.266,0.079,25.743,7.547,37.449,17.239l-1.122,0.338
		c-13.706-11.202-36.442-16.958-37.413-17.203l-0.252-0.058L58.255,111.766c-1.892-0.878-3.82-1.72-5.763-2.518l113.485-27.887
		l-4.619-0.871c-0.648-0.122-11.425-2.115-23.448-2.115c11.972-1.576,29.175,2.763,29.348,2.813l0.245,0.058l76.021-18.181
		l0.007,0.029L163.884,82.49L167.553,83.555z"/>
	<path fill="#727272" d="M155.962,81.728L49.219,107.953c-3.511-1.331-7.073-2.482-10.605-3.382l4.396-1.309l-1.525-1.525
		l94.303-21.175l-0.029-0.108C143.587,80.303,151.185,81.087,155.962,81.728z"/>
</g>
<g id="Layer_3">
	<path fill="#989898" d="M244.538,64.942v5.648l-61.667,16.109c-4.475-1.756-8.49-3.13-11.21-4.008L244.538,64.942z"/>
	<path fill="#989898" d="M174.129,88.369L68.717,117.083c-2.439-1.338-4.979-2.669-7.598-3.95l105.096-27.161
		C167.071,86.196,170.064,87.009,174.129,88.369z"/>
</g>
</svg>
