<?xml version="1.0" encoding="utf-8"?>
<!-- Generator: Adobe Illustrator 17.0.0, SVG Export Plug-In . SVG Version: 6.00 Build 0)  -->
<!DOCTYPE svg PUBLIC "-//W3C//DTD SVG 1.1//EN" "http://www.w3.org/Graphics/SVG/1.1/DTD/svg11.dtd">
<svg version="1.1" xmlns="http://www.w3.org/2000/svg" xmlns:xlink="http://www.w3.org/1999/xlink" x="0px" y="0px" width="300px"
	 height="300px" viewBox="0 0 300 300" enable-background="new 0 0 300 300" xml:space="preserve">
<g id="Layer_1">
	<g>
		<polygon fill="#393939" points="276.911,144.082 276.911,148.147 266.591,150.871 266.591,146.571 		"/>
		<path fill="#393939" d="M281.928,123.437v-2.368c0-0.057-0.023-0.109-0.069-0.143c-0.029-0.029-0.075-0.046-0.12-0.046
			L56.809,162.888c-0.757,0.143-1.267,0.849-1.164,1.605l0.516,3.887c0.034,0.252,0.172,0.482,0.378,0.631
			c0.212,0.149,0.47,0.206,0.722,0.155l224.069-45.001C281.681,124.096,281.928,123.792,281.928,123.437z M283.556,121.069v2.368
			c0,1.124-0.803,2.104-1.903,2.322L57.583,170.759c-0.166,0.034-0.333,0.052-0.505,0.052c-0.533,0-1.043-0.166-1.479-0.476
			c-0.573-0.407-0.952-1.043-1.049-1.737l-0.516-3.887c-0.218-1.617,0.871-3.119,2.477-3.423l224.895-42.002
			c0.539-0.097,1.084,0.052,1.496,0.39C283.315,120.02,283.556,120.53,283.556,121.069z"/>
		<path fill="#393939" d="M47.389,143.801c-8.17-6.484-15.056-14.425-21.127-21.437c-4.569-5.269-8.589-9.901-12.481-13.238
			l7.161,72.314l32.628,36.802l-5.378-73.925C47.911,144.174,47.642,144.002,47.389,143.801z M27.489,121.304
			c5.94,6.846,12.659,14.597,20.554,20.932l-0.568-7.826c-0.367-0.218-0.699-0.499-0.992-0.831
			c-11.725-13.645-19.843-21.093-33.953-33.672c-0.006,0.086,0,0.172,0.011,0.252l0.963,6.203l0.046,0.476
			C17.954,110.307,22.381,115.41,27.489,121.304z M266.436,91.015l0.103-1.347l0.367-0.138l-6.484-2.488h-2.792l-0.132,0.791
			c1.399,0.195,4.225,0.619,5.945,1.049C264.682,89.192,265.697,90.109,266.436,91.015z M269.842,90.138l-1.76,0.677l-0.12,1.628
			l2.987-0.722L269.842,90.138z M227.639,100.83l-19.826-6.02l-22.245,3.067l18.433,6.519L227.639,100.83z M229.508,100.549
			l17.532-2.643l-19.465-5.814l-17.836,2.454L229.508,100.549z M146.151,113.122l-17.108-7.459l-28.271,3.893l15.182,8.118
			L146.151,113.122z M145.096,93.033c-3.274-1.485-6.645-2.935-10.148-4.346l-110.55,11.897c2.414,1.961,4.982,4.139,7.568,6.444
			L145.096,93.033z M148.961,94.839c-0.814-0.39-1.634-0.78-2.465-1.158L32.769,107.745c0.533,0.482,1.066,0.963,1.6,1.456
			L148.961,94.839z M156.529,92.437c0.774,0.378,1.542,0.768,2.311,1.158l74.097-9.385l-2.924-0.866L156.529,92.437z
			 M173.929,108.931c-4.122-2.729-8.313-5.286-12.636-7.711l-30.702,4.231l17.068,7.442L173.929,108.931z M169.096,99.322
			l58.543-8.061l21.282,6.364l25.725-3.881l-2.075-0.745l-5.951,1.439l-0.281-0.596c-0.384-0.808-1.72-2.993-3.285-3.383
			c-2.225-0.556-6.553-1.124-6.599-1.129l-0.837-0.109l0.407-2.437l-29.555-9.856l-83.85,9.517
			c4.197,1.554,8.394,3.331,12.573,5.338l74.883-9.265l6.823,2.007l-76.781,9.729C163.122,95.831,166.115,97.522,169.096,99.322z
			 M183.814,98.118l-13.617,1.875c3.887,2.391,7.757,4.977,11.587,7.751l20.514-3.09L183.814,98.118z M52.985,119.366l-0.768-0.866
			v-2.116l-2.374-0.487c-0.046-0.011-0.092-0.017-0.138-0.017c0,0,0,0-0.006,0L52.985,119.366z M53.169,127.14
			c-0.103-0.069-0.201-0.155-0.287-0.252l-5.859-6.937c-0.636-0.751-0.791-1.789-0.464-2.689l-3.417,0.476
			c3.205,3.337,6.1,6.639,8.342,9.661L53.169,127.14z M53.358,124.933l0.086-2.7l-4.885-5.189l-0.367,0.556
			c-0.269,0.401-0.241,0.935,0.069,1.301L53.358,124.933z M59.997,124.761l-1.135-1.783l-2.935-0.281l-0.843-0.952l-0.12,3.876
			L59.997,124.761z M81.927,122.806l-14.849-8.611l-13.238,1.823v1.869l2.884,3.251l3.085,0.298l2.735,4.294L81.927,122.806z
			 M53.839,115.198l106.278-14.637c-3.182-1.754-6.444-3.446-9.804-5.074L35.154,109.917c2.5,2.316,4.971,4.713,7.287,7.098
			l4.61-0.642l0.722-1.084c0.522-0.774,1.479-1.175,2.397-0.986l3.669,0.757V115.198z M83.211,122.611l31.401-4.736l-15.21-8.13
			l-31.017,4.271L83.211,122.611z M280.838,163.553l5.017-57.241L51.351,144.828c-0.269,0.046-0.545,0.069-0.814,0.069
			c-0.229,0-0.453-0.023-0.677-0.052l5.435,74.717L280.838,163.553z M286.153,96.502c-4.85-2.626-9.867-5.074-15.021-7.344
			l0.241,0.344l0.069,0.023l-0.04,0.017l1.244,1.772l0.011-0.006l8.623,3.079L50.749,129.153l-0.287-0.401
			c-6.525-8.944-19.075-20.571-28.615-28.128l-1.554-1.227l114.89-12.372l0.183,0.08c15.446,6.221,28.466,13.049,40.953,21.466
			l3.165-0.476c-13.318-9.471-27.004-16.632-40.718-21.288l-2.958-1.003l-0.482-0.161l91.315-10.372l0.172,0.057l30.203,10.068
			l3.646-0.545c-9.947-3.79-20.353-6.96-31.166-9.46c-0.929-0.218-1.909-0.292-2.867-0.235c-0.149,0.011-0.298,0.023-0.447,0.04
			L13.867,98.434c-0.149,0.011-0.287,0.057-0.419,0.115c14.264,12.716,22.429,20.193,34.268,33.97
			c0.539,0.625,1.347,0.923,2.161,0.797l236.58-36.619C286.365,96.628,286.262,96.559,286.153,96.502z M287.472,103.703v-4.994
			c0-0.178-0.023-0.35-0.057-0.516L50.13,134.92c-0.212,0.034-0.419,0.046-0.625,0.046c-0.12,0-0.241-0.006-0.361-0.017l0.596,8.227
			c0.436,0.103,0.894,0.12,1.347,0.052l235.416-38.671l0.636-0.315C287.346,104.138,287.472,103.932,287.472,103.703z
			 M10.937,100.412c-0.132-0.843,0.092-1.714,0.608-2.385c0.516-0.677,1.301-1.118,2.144-1.21L226.005,73.58
			c1.284-0.138,2.609-0.063,3.864,0.224c20.606,4.782,39.806,11.931,57.058,21.271c1.342,0.722,2.173,2.116,2.173,3.635v4.994
			c0,0.849-0.476,1.611-1.233,1.989l-0.344,0.172l-5.171,58.984l-0.562,0.143l-0.808,0.201v2.58c0,1.955-1.823,3.543-4.071,3.543
			c-2.247,0-4.065-1.588-4.065-3.543v-0.562l-83.162,20.651v3.033c0,1.955-1.823,3.543-4.071,3.543
			c-2.247,0-4.065-1.588-4.065-3.543v-1.009L62.405,219.47v3.474c0,1.955-1.823,3.543-4.071,3.543s-4.065-1.588-4.065-3.543v-1.468
			l-27.48-30.989c-2.041-0.189-3.629-1.691-3.629-3.52V186.4l-3.784-4.271l-7.482-75.559L10.937,100.412z"/>
	</g>
</g>
<g id="Layer_2">
	<path fill="#989898" d="M266.339,93.841l0.281,0.596l5.951-1.439l2.075,0.745l-25.725,3.881l-21.282-6.364l-58.543,8.061
		c-2.981-1.8-5.974-3.492-8.978-5.068l76.781-9.729l-6.823-2.007l-74.883,9.265c-4.18-2.007-8.376-3.784-12.573-5.338l83.85-9.517
		l29.555,9.856l-0.407,2.437l0.837,0.109c0.046,0.006,4.375,0.573,6.599,1.129C264.619,90.848,265.955,93.033,266.339,93.841z"/>
	<path fill="#989898" d="M160.118,100.561L53.839,115.198v-0.138l-3.669-0.757c-0.917-0.189-1.875,0.212-2.397,0.986l-0.722,1.084
		l-4.61,0.642c-2.316-2.385-4.787-4.782-7.287-7.098l115.159-14.431C153.674,97.115,156.936,98.806,160.118,100.561z"/>
	<path fill="#989898" d="M145.096,93.033l-113.13,13.995c-2.586-2.305-5.154-4.483-7.568-6.444l110.55-11.897
		C138.452,90.097,141.823,91.548,145.096,93.033z"/>
</g>
<g id="Layer_3">
	<path fill="#727272" d="M47.022,119.951l5.859,6.937c0.086,0.097,0.183,0.183,0.287,0.252l-1.686,0.258
		c-2.242-3.021-5.137-6.324-8.342-9.661l3.417-0.476C46.231,118.162,46.386,119.2,47.022,119.951z"/>
	<path fill="#727272" d="M148.961,94.839L34.369,109.201c-0.533-0.493-1.066-0.975-1.6-1.456l113.726-14.064
		C147.327,94.059,148.147,94.449,148.961,94.839z"/>
	<path fill="#727272" d="M232.937,84.209l-74.097,9.385c-0.768-0.39-1.537-0.78-2.311-1.158l73.484-9.093L232.937,84.209z"/>
	<polygon fill="#727272" points="247.041,97.906 229.508,100.549 209.74,94.546 227.576,92.093 	"/>
	<polygon fill="#727272" points="227.639,100.83 204.001,104.396 185.568,97.878 207.813,94.81 	"/>
	<path fill="#727272" d="M202.298,104.654l-20.514,3.09c-3.83-2.775-7.7-5.361-11.587-7.751l13.617-1.875L202.298,104.654z"/>
	<path fill="#727272" d="M173.929,108.931l-26.27,3.962l-17.068-7.442l30.702-4.231
		C165.616,103.645,169.807,106.202,173.929,108.931z"/>
	<polygon fill="#727272" points="146.151,113.122 115.954,117.675 100.772,109.556 129.043,105.663 	"/>
	<polygon fill="#727272" points="81.927,122.806 62.542,125.73 59.808,121.436 56.723,121.138 53.839,117.887 53.839,116.018 
		67.078,114.195 	"/>
	<polygon fill="#727272" points="114.612,117.875 83.211,122.611 68.385,114.017 99.402,109.745 	"/>
</g>
</svg>
